<?xml version="1.0" standalone="no"?>
<!DOCTYPE svg PUBLIC "-//W3C//DTD SVG 20010904//EN"
 "http://www.w3.org/TR/2001/REC-SVG-20010904/DTD/svg10.dtd">
<svg version="1.0" xmlns="http://www.w3.org/2000/svg"
 width="2076.000000pt" height="1454.000000pt" viewBox="0 0 2076.000000 1454.000000"
 preserveAspectRatio="xMidYMid meet">
<metadata>
Created by potrace 1.16, written by Peter Selinger 2001-2019
</metadata>
<g transform="translate(0.000000,1454.000000) scale(0.100000,-0.100000)"
fill="#000000" stroke="none">
<path d="M0 7270 l0 -7270 10380 0 10380 0 0 7270 0 7270 -10380 0 -10380 0 0
-7270z m3380 3685 c157 -15 259 -28 318 -40 37 -9 39 -19 20 -103 l-13 -54
-55 7 c-30 4 -82 11 -115 16 -287 42 -713 24 -985 -42 -95 -23 -107 -23 -113
0 -3 12 -12 21 -20 21 -14 0 -184 -53 -222 -69 -81 -35 -115 -38 -115 -8 0 15
78 48 233 98 92 29 97 33 95 57 -2 20 3 27 27 34 149 46 493 93 700 96 50 1
160 -5 245 -13z m1510 -556 c160 -113 345 -287 497 -469 121 -144 247 -325
239 -345 -2 -7 -31 -29 -63 -47 l-58 -35 -44 66 c-176 265 -388 489 -656 697
-64 49 -163 114 -174 114 -25 0 5 70 57 132 15 18 19 16 202 -113z m-1400 -78
c19 -4 67 -14 105 -21 63 -11 119 -25 210 -50 73 -21 74 -21 72 -48 -2 -22 5
-28 58 -50 165 -67 374 -172 416 -208 8 -8 18 -14 22 -14 20 0 217 -153 315
-244 45 -43 50 -57 29 -75 -11 -8 -20 -3 -43 20 -46 50 -211 180 -312 248 -90
60 -251 147 -342 184 -25 10 -54 22 -65 27 -11 5 -37 14 -58 22 -36 12 -40 11
-56 -11 -14 -18 -23 -22 -37 -16 -60 24 -202 56 -379 85 -76 13 -504 9 -541
-4 -19 -7 -22 -2 -34 68 -7 42 -10 80 -6 84 21 21 565 24 646 3z m-2071 -45
c9 -11 4 -20 -26 -42 -80 -62 -218 -195 -338 -325 -92 -99 -254 -321 -311
-424 -6 -11 -23 -40 -37 -65 -15 -25 -39 -71 -54 -102 -28 -57 -48 -72 -59
-44 -6 15 35 106 86 191 17 28 33 57 37 65 9 20 119 184 158 236 110 144 328
373 460 482 54 45 66 49 84 28z m1276 -56 c11 -17 -13 -37 -50 -44 -112 -19
-105 -20 -105 3 0 14 8 22 28 27 15 3 38 10 52 14 36 12 68 12 75 0z m-377
-133 c2 -11 -6 -20 -25 -27 -15 -6 -59 -27 -96 -46 -38 -20 -70 -34 -72 -32
-1 2 -5 12 -8 23 -6 17 6 26 81 62 92 45 115 49 120 20z m1033 -167 c101 -13
190 -28 244 -41 78 -20 180 -51 197 -60 10 -5 22 -9 28 -9 5 0 39 -13 75 -30
36 -16 70 -30 75 -30 18 0 11 -24 -33 -110 -47 -94 -46 -94 -127 -58 -76 34
-83 36 -150 57 -135 41 -226 59 -315 63 l-70 3 -3 -197 -2 -198 -105 0 -105 0
0 310 0 310 103 0 c57 0 142 -5 188 -10z m-1441 -34 c0 -2 3 -11 6 -19 3 -10
-15 -30 -55 -60 -50 -38 -62 -43 -71 -32 -17 21 -11 31 45 74 44 35 75 50 75
37z m448 -238 c24 -30 17 -51 -23 -75 -22 -13 -47 -26 -55 -30 -22 -10 -96
-60 -175 -119 -67 -50 -258 -238 -300 -296 l-20 -28 -28 25 -29 26 38 47 c65
80 156 172 234 235 41 34 77 64 80 67 9 9 128 90 133 90 2 0 31 16 63 35 65
39 67 40 82 23z m-748 -52 c0 -7 -18 -30 -41 -51 -85 -83 -222 -266 -303 -406
-27 -46 -84 -162 -118 -239 -11 -25 -24 -53 -29 -62 -5 -10 -9 -26 -9 -35 -1
-28 -25 -54 -44 -47 -16 6 -13 48 5 69 5 5 9 15 9 22 0 24 125 288 170 358 14
22 30 48 35 57 53 87 157 219 249 315 38 40 53 50 63 41 7 -6 13 -16 13 -22z
m3001 -467 c78 -104 110 -155 163 -264 53 -110 76 -164 76 -179 0 -8 5 -18 10
-21 16 -10 11 -25 -8 -25 -10 0 -23 -5 -30 -12 -9 -9 -15 -8 -27 8 -8 10 -15
25 -15 32 0 7 -4 20 -9 30 -5 9 -13 28 -19 42 -18 45 -62 134 -88 179 -61 106
-189 277 -243 325 -27 24 -26 34 1 63 l22 24 48 -53 c26 -29 80 -96 119 -149z
m-1901 102 c0 -11 5 -23 10 -26 13 -8 13 -25 -1 -25 -22 0 -148 -66 -234 -123
-101 -67 -253 -215 -317 -310 -52 -76 -138 -244 -138 -268 0 -10 -4 -20 -9
-23 -5 -3 -12 -18 -15 -33 -4 -16 -11 -46 -17 -68 -27 -107 -32 -152 -32 -300
0 -163 9 -261 24 -271 5 -3 9 -20 9 -39 0 -19 5 -37 10 -40 6 -3 10 -17 10
-31 0 -13 5 -24 10 -24 6 0 10 -8 10 -18 0 -25 86 -192 139 -271 24 -35 82
-103 130 -152 l88 -89 -22 -20 c-27 -25 -37 -25 -55 0 -8 11 -19 20 -25 20 -6
0 -89 -79 -185 -175 -96 -96 -180 -175 -186 -175 -17 0 -171 169 -201 221 -10
16 -21 29 -25 29 -4 0 -8 6 -8 13 0 7 -8 22 -18 33 -16 19 -29 39 -56 89 -6
11 -13 22 -16 25 -3 3 -20 37 -39 75 -18 39 -42 87 -52 108 -11 22 -19 47 -19
57 0 11 -4 22 -10 25 -5 3 -10 9 -10 13 0 8 60 36 63 31 4 -6 26 -57 36 -81
21 -56 98 -207 123 -245 15 -23 28 -46 28 -50 0 -5 8 -18 18 -29 10 -10 29
-35 42 -54 13 -19 29 -40 35 -47 5 -6 28 -34 50 -62 22 -27 47 -50 56 -51 19
0 309 289 309 309 0 7 -8 21 -18 30 -23 21 -117 147 -134 181 -7 14 -15 27
-18 30 -3 3 -20 37 -39 75 -18 39 -37 78 -42 87 -5 10 -9 26 -9 36 0 10 -3 22
-7 26 -12 12 -33 80 -33 108 0 15 -4 29 -9 32 -4 3 -11 31 -14 63 -3 32 -10
70 -16 86 l-11 28 -286 -1 c-157 -1 -288 1 -290 3 -6 6 14 344 25 412 5 33 15
80 21 105 6 25 14 60 17 78 3 18 9 35 14 38 5 3 9 16 9 29 0 13 5 27 10 30 6
3 10 15 10 26 0 10 4 27 9 37 5 9 13 28 19 42 27 67 43 100 53 106 8 4 159
-62 188 -83 2 -2 -6 -24 -19 -50 -12 -27 -27 -59 -32 -73 -6 -14 -14 -33 -19
-42 -5 -10 -9 -27 -9 -37 0 -11 -4 -23 -10 -26 -5 -3 -10 -17 -10 -30 0 -13
-4 -26 -9 -29 -5 -3 -11 -23 -15 -43 -3 -21 -10 -65 -17 -98 -6 -33 -12 -89
-12 -125 l-2 -65 178 -3 177 -2 11 27 c6 16 13 54 16 86 3 32 10 60 14 63 5 3
9 20 9 39 0 19 5 37 10 40 6 3 10 17 10 30 0 13 5 27 10 30 6 3 10 14 10 24 0
32 115 247 173 323 121 160 291 301 467 386 96 47 110 50 110 23z m3085 -79
c6 -4 17 -27 25 -52 7 -25 17 -49 22 -54 13 -16 9 -66 -5 -66 -19 0 -37 21
-37 42 0 10 -4 26 -9 36 -27 53 -33 72 -28 86 7 17 16 20 32 8z m-565 -119
c12 -27 26 -57 30 -68 5 -11 17 -41 29 -67 12 -26 21 -54 21 -62 0 -8 5 -18
10 -21 6 -3 10 -17 10 -30 0 -13 5 -27 10 -30 6 -3 10 -17 10 -30 0 -13 4 -26
9 -29 5 -3 11 -23 14 -43 11 -71 18 -108 27 -128 13 -31 37 -220 46 -372 l6
-93 -74 0 -75 0 -11 98 c-7 53 -14 122 -16 152 -8 94 -17 154 -26 175 -5 11
-11 34 -14 50 -9 53 -17 89 -26 110 -4 11 -13 40 -20 65 -7 25 -16 55 -21 68
-28 71 -46 112 -77 182 -11 25 -19 46 -17 48 2 2 127 71 131 72 0 0 11 -21 24
-47z m703 -280 c3 -21 10 -59 15 -86 7 -36 6 -50 -5 -59 -7 -6 -15 -9 -16 -7
-9 13 -27 79 -27 97 0 12 -5 31 -12 41 -15 24 -4 51 21 51 14 0 20 -9 24 -37z
m-2577 -187 c122 -32 203 -100 258 -215 l31 -66 0 -180 0 -180 -32 -66 c-39
-79 -111 -150 -191 -187 l-57 -27 -290 -3 c-159 -2 -299 -1 -312 3 -51 12 -53
31 -53 470 l0 407 29 29 29 29 269 0 c195 0 282 -4 319 -14z m1014 -80 c0 -14
4 -27 9 -30 5 -3 11 -18 14 -33 4 -16 11 -50 17 -78 7 -27 14 -75 17 -105 3
-34 11 -60 21 -67 12 -10 88 -13 300 -13 l283 0 -5 -167 c-5 -186 -13 -268
-26 -298 -5 -11 -11 -36 -15 -55 -3 -19 -8 -50 -12 -68 -3 -18 -9 -35 -14 -38
-5 -3 -9 -16 -9 -29 0 -13 -4 -27 -10 -30 -5 -3 -10 -15 -10 -26 0 -10 -4 -27
-9 -37 -5 -9 -13 -28 -19 -42 -7 -19 -35 -81 -57 -127 -3 -6 -180 88 -180 94
0 8 28 71 46 105 5 10 9 26 9 36 0 10 3 22 7 26 10 10 33 78 33 99 0 9 4 25 9
35 14 28 31 109 31 150 0 21 5 43 11 49 5 5 9 34 7 64 l-3 54 -175 2 c-96 2
-182 -1 -190 -6 -8 -6 -18 -36 -22 -73 -16 -123 -20 -143 -29 -152 -5 -6 -9
-20 -9 -32 0 -13 -4 -26 -10 -29 -5 -3 -10 -15 -10 -26 0 -10 -4 -27 -9 -37
-5 -9 -28 -57 -52 -107 -68 -143 -123 -219 -239 -335 -133 -133 -245 -208
-425 -285 -63 -27 -77 -32 -125 -45 -25 -7 -56 -16 -70 -20 -74 -24 -378 -33
-497 -15 -52 7 -53 8 -53 42 l0 35 43 -7 c55 -10 399 -10 457 0 25 4 49 11 55
16 5 5 21 9 36 9 15 0 31 5 34 10 3 6 15 10 26 10 10 0 27 4 37 9 9 5 51 25
92 45 89 43 134 68 138 79 2 4 8 7 13 7 26 0 214 168 268 240 14 19 28 37 31
40 22 19 87 129 126 210 14 30 30 63 35 72 5 10 9 27 9 37 0 11 4 22 9 25 5 3
11 18 14 33 4 16 11 51 17 78 18 83 34 206 34 270 0 78 -27 280 -43 320 -15
36 -31 91 -31 103 0 7 9 12 19 12 11 0 23 5 26 10 11 18 25 10 25 -14z m1628
-116 c6 -22 12 -65 12 -95 0 -52 -1 -55 -25 -55 -25 0 -25 1 -25 88 0 82 4
102 19 102 3 0 12 -18 19 -40z m-5642 -164 c-3 -11 -6 -40 -6 -63 0 -36 -3
-43 -19 -43 -18 0 -19 6 -14 58 6 75 9 83 28 75 11 -4 15 -13 11 -27z m678
-233 c13 -170 33 -328 46 -358 5 -11 11 -33 14 -50 9 -53 17 -89 26 -110 4
-11 14 -40 21 -65 7 -25 16 -49 21 -54 4 -6 8 -20 8 -32 0 -13 5 -26 10 -29 6
-3 10 -15 10 -26 0 -10 5 -19 10 -19 6 0 10 -7 10 -15 0 -8 9 -30 20 -50 11
-20 20 -41 20 -49 0 -7 -28 -27 -61 -44 -65 -34 -89 -31 -89 9 0 11 -4 19 -10
19 -5 0 -10 7 -10 15 0 8 -4 23 -9 33 -9 18 -26 58 -44 102 -5 14 -13 33 -18
42 -5 10 -9 27 -9 37 0 11 -4 23 -10 26 -5 3 -10 17 -10 30 0 13 -4 27 -10 30
-5 3 -10 21 -10 40 0 19 -4 37 -10 40 -5 3 -10 21 -10 40 0 19 -4 36 -9 39 -5
3 -12 32 -15 63 -4 32 -12 90 -17 128 -6 39 -13 118 -15 178 l-5 107 74 0 75
0 6 -77z m4976 -28 c0 -63 -1 -65 -25 -65 -25 0 -26 1 -20 53 9 69 12 77 30
77 12 0 15 -13 15 -65z m-5646 -77 c10 -40 7 -146 -6 -154 -22 -14 -38 28 -38
103 0 65 2 73 19 73 11 0 21 -9 25 -22z m14799 -239 c65 -16 119 -58 152 -119
28 -53 30 -60 29 -176 0 -115 -1 -122 -30 -175 -22 -37 -46 -63 -79 -84 -48
-30 -49 -30 -199 -30 -164 0 -191 7 -243 63 -56 61 -67 98 -67 227 0 105 3
126 23 168 45 91 138 136 284 137 49 0 107 -5 130 -11z m3336 -5 c57 -17 121
-67 147 -117 21 -41 31 -234 15 -293 -15 -57 -49 -104 -101 -139 -44 -29 -49
-30 -178 -34 -108 -2 -142 0 -178 14 -63 24 -103 61 -130 120 -20 43 -24 66
-24 160 0 95 3 117 24 160 49 103 128 144 282 145 54 0 112 -6 143 -16z
m-11479 -5 c65 -14 127 -61 156 -119 21 -39 23 -60 24 -163 0 -129 -11 -165
-66 -221 -61 -60 -85 -66 -288 -66 -154 0 -187 3 -200 16 -14 13 -16 52 -16
268 0 258 2 276 40 289 28 10 299 7 350 -4z m675 -11 c3 -13 4 -142 3 -288
l-3 -265 -50 0 -50 0 -3 265 c-1 146 0 275 3 288 5 19 12 22 50 22 38 0 45 -3
50 -22z m963 -35 l3 -53 -215 0 c-182 0 -217 -2 -230 -16 -13 -13 -16 -42 -16
-164 0 -82 3 -155 6 -164 5 -14 31 -16 181 -16 l174 0 -3 58 -3 57 -133 3
-133 3 3 52 3 52 167 3 c217 3 208 10 208 -162 0 -69 -4 -136 -10 -150 l-10
-26 -227 0 c-259 0 -274 4 -313 79 -18 36 -20 59 -20 204 0 177 7 212 53 255
13 13 37 27 53 32 16 5 126 8 244 7 l215 -2 3 -52z m510 -236 l2 -288 -52 3
-53 3 -3 275 c-1 151 0 281 3 288 3 9 20 12 52 10 l48 -3 3 -288z m928 269 c3
-13 4 -37 2 -52 l-3 -29 -110 -5 -110 -5 -5 -230 -5 -230 -52 -3 -53 -3 -2
233 -3 233 -110 5 -110 5 -3 39 c-6 70 -21 66 282 66 l276 0 6 -24z m869 12
c14 -6 28 -21 31 -32 2 -12 3 -136 2 -276 l-3 -255 -50 0 -50 0 -3 68 -3 67
-179 0 -180 0 0 -71 0 -70 -52 3 -53 3 0 180 c1 166 3 184 24 226 40 83 115
142 201 160 60 12 287 10 315 -3z m543 -225 l2 -233 198 0 c108 0 203 -4 210
-9 9 -5 12 -24 10 -52 l-3 -44 -250 -3 c-226 -2 -251 -1 -262 15 -10 12 -13
86 -13 283 0 147 3 270 7 274 4 4 28 6 53 4 l45 -3 3 -232z m1280 180 l3 -53
-183 0 c-213 0 -228 -5 -228 -70 0 -21 6 -42 13 -47 6 -4 84 -10 173 -13 158
-5 161 -5 198 -34 54 -41 76 -82 76 -142 0 -59 -26 -105 -79 -141 -34 -23 -39
-23 -260 -21 l-226 3 0 50 0 50 214 3 c138 1 219 6 228 13 18 16 16 74 -4 90
-11 10 -62 15 -179 19 -145 4 -166 7 -191 26 -52 39 -73 81 -73 147 0 86 40
143 119 168 14 4 109 7 211 6 l185 -2 3 -52z m1082 -63 l5 -115 177 -3 177 -2
3 117 3 118 47 3 c42 3 48 1 53 -20 3 -13 4 -142 3 -288 l-3 -265 -50 0 -50 0
-5 110 -5 110 -175 0 -175 0 -3 -113 -3 -113 -52 3 -52 3 -3 274 c-2 199 1
277 9 288 8 9 27 13 53 11 l41 -3 5 -115z m2354 106 c61 -25 76 -57 76 -160 0
-77 -4 -97 -23 -128 -28 -46 -61 -72 -113 -90 l-42 -14 94 -78 c52 -43 94 -83
94 -87 0 -5 -34 -9 -75 -9 l-75 0 -104 89 c-86 75 -110 90 -142 93 l-39 3 0
50 0 50 137 5 c165 6 175 12 179 101 1 30 -1 61 -5 67 -5 9 -57 12 -176 12
l-170 0 -2 -232 -3 -233 -50 0 -50 0 -3 267 c-2 257 -2 268 18 288 19 19 33
20 230 20 156 0 219 -4 244 -14z m571 -276 l0 -285 -50 0 -50 0 -3 265 c-1
146 0 275 3 288 5 21 11 23 53 20 l47 -3 0 -285z m883 274 c43 -30 29 -55
-109 -211 -72 -82 -149 -169 -171 -195 l-39 -48 168 -2 168 -3 0 -50 0 -50
-244 -3 c-216 -2 -246 0 -263 14 -10 10 -18 25 -18 34 0 15 144 185 306 362
19 20 34 42 34 48 0 6 -57 10 -165 10 l-165 0 0 55 0 55 238 0 c199 0 241 -3
260 -16z m1555 -86 c54 -57 137 -145 184 -195 48 -51 90 -93 94 -93 5 0 10 87
11 193 l3 192 50 0 50 0 3 -272 c2 -262 2 -273 -18 -293 -40 -40 -31 -47 -325
260 l-120 125 -5 -195 -5 -195 -50 0 -50 0 -3 264 c-3 292 1 311 56 311 21 0
47 -21 125 -102z m1303 78 c3 -13 4 -37 2 -52 l-3 -29 -191 -5 c-210 -6 -224
-9 -224 -65 0 -57 17 -63 190 -67 135 -3 160 -6 190 -24 56 -32 80 -77 80
-147 0 -71 -23 -115 -76 -146 -34 -20 -48 -21 -262 -19 l-227 3 -3 41 c-2 26
2 45 11 52 9 8 84 13 222 14 209 3 209 3 221 27 9 17 9 32 2 52 -5 16 -11 30
-11 30 -1 1 -78 4 -172 8 -158 6 -172 8 -204 30 -84 60 -94 200 -18 269 46 43
89 51 284 52 l183 0 6 -24z m-20122 -128 c4 -18 10 -49 13 -68 3 -19 10 -41
16 -49 9 -10 7 -17 -8 -27 -29 -21 -35 -17 -35 20 0 19 -4 38 -10 41 -5 3 -10
21 -10 38 0 18 -4 39 -9 47 -12 18 -5 30 18 30 13 0 21 -10 25 -32z m4853
-134 c3 -9 1 -25 -5 -35 -7 -10 -12 -26 -12 -34 0 -8 -4 -23 -9 -33 -5 -9 -23
-48 -41 -87 -18 -38 -38 -81 -46 -95 -8 -14 -26 -50 -41 -80 -15 -30 -31 -56
-35 -58 -4 -2 -8 -8 -8 -13 0 -9 -96 -158 -109 -169 -3 -3 -18 -21 -33 -42
-15 -20 -33 -42 -40 -50 -7 -7 -41 -45 -76 -85 -41 -46 -68 -70 -78 -66 -23 8
-17 21 32 73 26 27 54 60 62 72 9 13 23 30 32 38 9 8 27 31 40 50 13 19 27 37
30 40 14 11 110 160 110 170 0 5 3 10 8 10 4 0 12 10 17 23 6 12 20 40 32 62
46 90 63 128 63 141 0 8 5 14 10 14 6 0 10 9 10 19 0 11 5 23 10 26 6 3 10 17
10 31 0 13 5 24 10 24 6 0 10 10 10 23 0 39 35 62 47 31z m-4751 -231 c7 -10
14 -26 14 -36 0 -9 5 -27 12 -40 36 -70 36 -77 3 -77 -18 0 -25 5 -25 20 0 11
-4 29 -10 40 -5 11 -14 29 -20 40 -14 27 -13 70 1 70 7 0 18 -8 25 -17z m4074
-153 c0 -16 -165 -190 -245 -260 -85 -74 -233 -177 -300 -210 -16 -8 -33 -19
-37 -25 -11 -15 -42 8 -46 34 -2 13 3 24 15 28 10 4 20 9 23 12 8 10 64 42 83
48 9 3 17 9 17 14 0 5 6 9 13 9 7 0 22 8 33 18 10 10 35 29 54 42 19 14 44 32
55 40 36 28 230 225 259 263 l29 38 23 -22 c13 -13 24 -26 24 -29z m1140 -129
c0 -20 -60 -144 -72 -149 -5 -2 -8 -12 -8 -23 0 -10 -4 -19 -8 -19 -5 0 -15
-12 -23 -27 -15 -30 -168 -265 -178 -273 -3 -3 -18 -21 -33 -42 -15 -20 -33
-42 -40 -50 -7 -7 -47 -52 -88 -98 -92 -104 -97 -109 -190 -190 -41 -36 -82
-72 -90 -80 -8 -9 -29 -26 -46 -38 -28 -19 -33 -20 -38 -6 -7 18 5 31 114 124
91 78 234 224 290 296 8 11 26 33 40 50 14 17 35 44 47 60 12 16 37 50 57 77
20 26 36 52 36 57 0 6 5 10 10 10 6 0 10 5 10 11 0 5 17 36 38 67 21 31 45 72
53 90 8 17 17 32 21 32 5 0 8 9 8 20 0 11 3 20 8 20 7 0 32 48 32 62 0 14 24
37 38 38 6 0 12 -8 12 -19z m-4869 -281 c5 0 9 -6 9 -12 0 -11 131 -193 149
-208 3 -3 19 -23 36 -45 38 -51 297 -311 350 -350 22 -17 54 -42 70 -57 17
-16 35 -28 42 -28 6 0 13 -4 15 -8 2 -5 42 -35 90 -67 l87 -58 -19 -27 c-11
-16 -20 -33 -20 -39 0 -6 -4 -11 -9 -11 -5 0 -11 -9 -14 -20 -5 -20 -47 -29
-47 -10 0 6 -5 10 -11 10 -10 0 -98 56 -109 70 -3 3 -21 17 -40 30 -19 13 -37
27 -40 30 -3 3 -21 17 -40 30 -19 13 -37 27 -40 30 -3 3 -34 30 -69 60 -84 71
-192 179 -261 260 -30 35 -61 71 -68 78 -7 8 -25 30 -40 50 -15 21 -29 39 -32
42 -3 3 -17 21 -30 40 -14 19 -32 44 -42 54 -10 11 -18 26 -18 33 0 7 -4 13
-10 13 -5 0 -10 6 -10 13 0 7 -9 23 -20 35 -28 30 -26 37 23 69 81 53 80 53
96 22 7 -16 17 -29 22 -29z m1651 -21 c23 -12 51 -25 60 -30 10 -5 25 -9 33
-9 8 0 23 -4 33 -9 29 -14 87 -31 110 -31 11 0 23 -4 26 -9 3 -5 25 -12 48
-15 69 -11 178 -24 256 -32 l72 -7 0 -96 0 -96 -77 3 c-100 3 -154 8 -223 21
-30 5 -76 13 -103 17 -26 4 -50 11 -53 15 -3 5 -16 9 -30 9 -13 0 -32 4 -42 9
-9 5 -35 14 -57 20 -22 7 -51 17 -65 23 -14 6 -34 14 -45 18 -49 19 -95 41
-99 49 -3 4 10 38 29 76 19 38 35 75 35 82 0 20 43 16 92 -8z m-772 -129 c36
-30 67 -57 70 -60 3 -3 21 -17 40 -30 19 -14 44 -32 54 -42 11 -10 26 -18 33
-18 7 0 13 -4 13 -8 0 -5 12 -15 28 -23 15 -8 29 -16 32 -19 10 -10 65 -41 83
-47 9 -3 17 -9 17 -14 0 -5 9 -9 19 -9 11 0 21 -3 23 -7 4 -9 147 -78 213
-103 11 -4 33 -13 48 -19 42 -17 64 -14 82 11 13 19 18 21 35 10 11 -6 31 -12
44 -12 14 0 27 -4 30 -9 3 -5 20 -11 38 -14 18 -4 58 -11 88 -17 159 -31 209
-35 430 -35 129 0 252 4 273 9 l37 8 0 -60 c0 -34 5 -64 10 -67 24 -15 4 -22
-92 -34 -162 -21 -471 -7 -648 29 -30 6 -73 13 -95 17 -22 3 -44 9 -50 14 -5
5 -21 9 -35 9 -14 0 -30 4 -35 9 -6 5 -21 11 -35 13 -20 2 -26 10 -30 38 -4
25 -11 36 -25 38 -11 2 -30 7 -42 13 -13 5 -33 13 -45 18 -108 42 -319 148
-326 164 -2 4 -8 7 -13 7 -10 0 -159 97 -169 110 -3 3 -21 17 -40 30 -35 24
-73 57 -159 136 -39 36 -43 44 -32 58 12 14 16 13 40 -12 14 -15 55 -52 91
-82z m2795 -96 c-11 -8 -27 -20 -35 -27 -28 -23 -64 -47 -72 -47 -5 0 -8 7 -8
16 0 18 28 46 73 72 15 9 27 21 27 26 0 6 8 2 18 -7 16 -17 16 -19 -3 -33z
m-327 -197 c2 -11 -20 -26 -75 -52 -43 -19 -85 -40 -94 -45 -13 -7 -18 -4 -22
10 -4 14 3 24 26 35 16 8 36 15 44 15 7 0 13 5 13 10 0 6 8 10 18 10 9 0 28 9
42 20 28 22 44 21 48 -3z m-430 -169 c9 -9 3 -15 -26 -25 -20 -7 -46 -13 -57
-13 -12 0 -26 -5 -33 -12 -14 -14 -19 -10 -24 17 -2 16 4 21 39 25 24 4 46 9
49 13 11 11 39 8 52 -5z m460 -500 c13 -13 -7 -26 -78 -48 -25 -7 -49 -17 -54
-22 -6 -4 -20 -8 -32 -8 -13 0 -26 -4 -29 -10 -3 -5 -16 -10 -29 -10 -12 0
-26 -4 -31 -9 -6 -5 -23 -11 -40 -13 -26 -3 -30 -8 -33 -35 -3 -27 -9 -34 -30
-39 -15 -3 -45 -9 -67 -14 -96 -21 -157 -32 -290 -52 -108 -16 -615 -15 -725
1 -47 7 -110 15 -140 19 -51 7 -55 9 -58 36 -2 16 1 33 7 39 6 6 11 26 11 45
l0 35 53 -7 c28 -4 84 -12 122 -17 228 -31 529 -31 765 0 70 10 97 15 218 42
105 23 112 23 112 0 0 -15 6 -21 22 -21 23 0 81 16 110 31 10 5 27 9 37 9 11
0 22 4 25 8 3 4 28 14 56 22 28 8 53 18 56 22 7 12 28 10 42 -4z"/>
<path d="M2887 8393 c-4 -3 -7 -134 -7 -289 l0 -284 24 -6 c14 -3 114 -4 224
-2 l199 3 48 30 c32 20 56 45 72 74 21 40 23 57 23 186 0 156 -8 191 -57 237
-55 53 -84 58 -311 58 -115 0 -212 -3 -215 -7z"/>
<path d="M14903 7509 c-55 -27 -68 -61 -68 -181 0 -82 3 -101 21 -125 34 -45
59 -53 179 -53 119 0 145 8 179 53 17 24 21 43 21 125 0 121 -12 154 -69 182
-60 29 -204 29 -263 -1z"/>
<path d="M18233 7511 c-60 -28 -73 -60 -73 -176 0 -159 29 -185 205 -185 168
0 195 26 195 188 0 86 -3 103 -22 132 -30 44 -74 58 -178 59 -63 0 -96 -4
-127 -18z"/>
<path d="M6748 7514 c-5 -4 -8 -85 -8 -181 l0 -173 141 0 141 0 34 34 34 34 0
101 c0 168 -17 184 -205 189 -71 2 -133 1 -137 -4z"/>
<path d="M10661 7510 c-73 -18 -117 -70 -127 -152 l-6 -58 181 0 182 0 -3 108
-3 107 -95 2 c-52 1 -110 -2 -129 -7z"/>
</g>
</svg>
